<svg width="430" height="102" viewBox="0 0 430 102" fill="none" xmlns="http://www.w3.org/2000/svg">
<path d="M358.333 0H380.385V101.987H359.333C358.781 101.987 358.333 101.539 358.333 100.987V0Z" fill="white"/>
<path d="M430 79.9359V101.987L359.333 101.987C358.781 101.987 358.333 101.539 358.333 100.987V79.9359L430 79.9359Z" fill="white"/>
<path d="M318.054 2.3352C318.054 1.78292 318.502 1.33521 319.054 1.33521H337.598C338.15 1.33521 338.598 1.78292 338.598 2.33521V101.729H318.054V2.3352Z" fill="white"/>
<path d="M230.743 1.33521L257.585 72.1728L284.234 1.33521H305.747L267.47 101.729H247.41L209.23 1.33521H230.743Z" fill="white"/>
<path d="M109.169 37.5777C109.169 30.9235 110.784 24.8508 114.015 19.3595C117.309 13.8683 121.702 9.50753 127.194 6.27736C132.685 2.98259 138.758 1.33521 145.412 1.33521H167.312C173.966 1.33521 180.039 2.98259 185.53 6.27736C191.022 9.50753 195.382 13.8683 198.613 19.3595C201.907 24.8508 203.555 30.9235 203.555 37.5777V65.4863C203.555 72.1405 201.907 78.2132 198.613 83.7045C195.382 89.1958 191.022 93.5888 185.53 96.8836C180.039 100.114 173.966 101.729 167.312 101.729H145.412C138.758 101.729 132.685 100.114 127.194 96.8836C121.702 93.5888 117.309 89.1958 114.015 83.7045C110.784 78.2132 109.169 72.1405 109.169 65.4863V37.5777ZM129.616 65.2925C129.616 69.6856 131.167 73.4649 134.268 76.6304C137.369 79.7314 141.083 81.2819 145.412 81.2819H167.312C171.705 81.2819 175.42 79.7314 178.456 76.6304C181.557 73.4649 183.108 69.6856 183.108 65.2925V37.7715C183.108 33.3785 181.557 29.6315 178.456 26.5305C175.42 23.365 171.705 21.7822 167.312 21.7822H145.412C141.083 21.7822 137.369 23.365 134.268 26.5305C131.167 29.6315 129.616 33.3785 129.616 37.7715V65.2925Z" fill="white"/>
<path d="M0 37.5777C0 30.9235 1.67969 24.8508 5.03906 19.3595C8.39844 13.8683 12.8884 9.50753 18.5089 6.27736C24.1294 2.98259 30.3636 1.33521 37.2115 1.33521H93.7072V21.7822H37.2115C32.6247 21.7822 28.6839 23.365 25.3891 26.5305C22.0943 29.6315 20.447 33.4108 20.447 37.8684V65.0987C20.447 69.5564 22.062 73.368 25.2922 76.5335C28.587 79.6991 32.5601 81.2819 37.2115 81.2819H93.7072V101.729H37.2115C30.3636 101.729 24.1294 100.081 18.5089 96.7867C12.8884 93.4919 8.39844 89.0989 5.03906 83.6076C1.67969 78.0517 0 71.9467 0 65.2925V37.5777Z" fill="white"/>
</svg>
